Coordinates
nRows=7
nColumns=38

# SIMM Motion File Header:
name Coordinates
datacolumns 38
datarows 7
otherdata 1
range 1.81349999999999990000 1.81949999999999990000

Units are S.I. units (second, meters, Newtons, ...)
Angles are in degrees.

endheader
time	pelvis_tilt	pelvis_list	pelvis_rotation	pelvis_tx	pelvis_ty	pelvis_tz	hip_flexion_r	hip_adduction_r	hip_rotation_r	knee_angle_r	ankle_angle_r	subtalar_angle_r	mtp_angle_r	hip_flexion_l	hip_adduction_l	hip_rotation_l	knee_angle_l	ankle_angle_l	subtalar_angle_l	mtp_angle_l	lumbar_extension	lumbar_bending	lumbar_rotation	arm_flex_r	arm_add_r	arm_rot_r	elbow_flex_r	pro_sup_r	wrist_flex_r	wrist_dev_r	arm_flex_l	arm_add_l	arm_rot_l	elbow_flex_l	pro_sup_l	wrist_flex_l	wrist_dev_l
      1.81349999999999990000	      5.86350561175581310000	     -3.76941565183524260000	      0.66581797777454066000	      1.21678902368934020000	      0.97683017923084281000	     -0.31765560306104251000	      1.44036467300000770000	     10.24379935995043300000	      3.07335171620963090000	    -38.02368916581460200000	     24.09062138574397600000	      0.00000000000000551073	      0.00000000000001843862	     13.46105508740555300000	     -0.92873096864124205000	      2.05385118739603860000	    -76.64654436026913200000	     11.15920383834569700000	     -0.00000000000000005301	      0.00000000000000440837	    -18.34848605213520000000	      7.17229925803490610000	     14.89681863863965300000	    -23.74179876418909500000	     -9.16700135162558460000	     -7.96284605240285790000	    129.98816300040212000000	     98.39803823411460800000	      0.00000000000000002735	     -0.00000000000000216770	    -35.07922336246877400000	    -12.57589792951991300000	     -0.90343237130994203000	    111.47434085186724000000	     93.25250043770012100000	     -0.00000000000000106840	      0.00000000000000202665
      1.81450000000000000000	      5.82504211504918690000	     -3.71478128669532380000	      0.64232991286875618000	      1.21691184732214500000	      0.97733632807497284000	     -0.31762573692643059000	      1.20777293713066220000	     10.18075447452871400000	      3.17298434199152180000	    -37.75968290837651200000	     23.97221949732178100000	      0.00000000000000536759	      0.00000000000001885397	     13.59515963988748800000	     -0.88190634684326763000	      2.01744590097194010000	    -76.43137248176206800000	     11.18939008509871000000	     -0.00000000000000006272	      0.00000000000000442022	    -18.27769084813627700000	      7.09419445770795940000	     15.00221670077707400000	    -23.75164165607627000000	     -9.21319779858352740000	     -7.89130039870915480000	    130.19333702201286000000	     98.47204159539373300000	      0.00000000000000002923	     -0.00000000000000217599	    -35.31167926993911300000	    -12.63155307929128500000	     -0.95472754479718347000	    111.72563134769143000000	     93.12620722510392600000	     -0.00000000000000107281	      0.00000000000000215173
      1.81549999999999990000	      5.78641759867776620000	     -3.65932423635590800000	      0.61927480193467677000	      1.21703791191367870000	      0.97784917103669999000	     -0.31759716746888822000	      0.97424903867673329000	     10.11631140670827600000	      3.27282024396688880000	    -37.49275964971619900000	     23.84912251431075300000	      0.00000000000000523989	      0.00000000000001925118	     13.72717735596727600000	     -0.83374469928267347000	      1.98136102436375230000	    -76.21106098387780000000	     11.21832202051263700000	     -0.00000000000000007256	      0.00000000000000445591	    -18.20627703468536800000	      7.01517223311872410000	     15.10500581441625000000	    -23.76100844814529400000	     -9.26119829557690190000	     -7.81757360463314120000	    130.39637478178574000000	     98.54804344303939000000	      0.00000000000000003146	     -0.00000000000000218545	    -35.54503072474084000000	    -12.68591231757564900000	     -1.00740853579355400000	    111.97672133358667000000	     93.00142168648598300000	     -0.00000000000000107777	      0.00000000000000228837
      1.81650000000000000000	      5.74761332280662800000	     -3.60303272495924800000	      0.59666288779778998000	      1.21716717699152620000	      0.97836850946996279000	     -0.31756990389034501000	      0.73988604622723975000	     10.05045110350806500000	      3.37276565023630550000	    -37.22304673257535500000	     23.72129412805350800000	      0.00000000000000509045	      0.00000000000001964980	     13.85712272791551000000	     -0.78420952951245793000	      1.94564163885685090000	    -75.98562943114730200000	     11.24597237829908300000	     -0.00000000000000008171	      0.00000000000000448549	    -18.13422934977785800000	      6.93521787824464650000	     15.20519777287709800000	    -23.76993110182655000000	     -9.31095051763535860000	     -7.74174930909086530000	    130.59723455025846000000	     98.62612459263911500000	      0.00000000000000003417	     -0.00000000000000219598	    -35.77923895837444900000	    -12.73894428919724900000	     -1.06147475912427570000	    112.22756504410656000000	     92.87822034262742900000	     -0.00000000000000108339	      0.00000000000000243138
      1.81749999999999990000	      5.70860945329751070000	     -3.54589676599848060000	      0.57450339008763707000	      1.21729960122464660000	      0.97889414160522992000	     -0.31754395398994834000	      0.50477912322982765000	      9.98315683389650310000	      3.47272293887105390000	    -36.95067303148415000000	     23.58870184717574500000	      0.00000000000000496683	      0.00000000000002009528	     13.98501167164357300000	     -0.73326667168593995000	      1.91033243776783460000	    -75.75509761106013700000	     11.27231405161862000000	     -0.00000000000000009186	      0.00000000000000453094	    -18.06153152370592700000	      6.85431840295306390000	     15.30280766881106700000	    -23.77844372725028100000	     -9.36240284744913960000	     -7.66391140685594950000	    130.79588000573227000000	     98.70635308120360200000	      0.00000000000000003652	     -0.00000000000000220707	    -36.01426430171510900000	    -12.79061962813280000000	     -1.11692308033279140000	    112.47812042882919000000	     92.75667833882846500000	     -0.00000000000000108841	      0.00000000000000256696
      1.81850000000000000000	      5.66938519813398050000	     -3.48790824797820910000	      0.55280455688647956000	      1.21743514248171510000	      0.97942586292672451000	     -0.31751932425760898000	      0.26902522387572186000	      9.91441432320631040000	      3.57259088142076340000	    -36.67576866538134800000	     23.45131731174861800000	      0.00000000000000486335	      0.00000000000002051164	     14.11086138295709900000	     -0.68088446625700738000	      1.87547766898543200000	    -75.51948553522133500000	     11.29732016958276100000	     -0.00000000000000010169	      0.00000000000000457442	    -17.98816641207532300000	      6.77246266814493230000	     15.39785379116005800000	    -23.78658236422897300000	     -9.41550447863312100000	     -7.58414384007940700000	    130.99227993746848000000	     98.78878342241078800000	      0.00000000000000003887	     -0.00000000000000221804	    -36.25006608768755000000	    -12.84091095462378200000	     -1.17374780239803590000	    112.72834877406166000000	     92.63686907064102600000	     -0.00000000000000109339	      0.00000000000000270632
      1.81949999999999990000	      5.62991894369887010000	     -3.42906102052334520000	      0.53157371669003206000	      1.21757375788346220000	      0.97996346654881594000	     -0.31749601995810811000	      0.03272278851830835000	      9.84421188679372610000	      3.67226488644686770000	    -36.39846471104962000000	     23.30911660342646000000	      0.00000000000000474655	      0.00000000000002087060	     14.23469019347521900000	     -0.62703393522011019000	      1.84112107683978810000	    -75.27881344111965200000	     11.32096417370637900000	     -0.00000000000000011070	      0.00000000000000460924	    -17.91411612946454600000	      6.68964151995134330000	     15.49035752183894000000	    -23.79438476291126700000	     -9.47020551834686590000	     -7.50253038988300960000	    131.18640794851473000000	     98.87345586186100400000	      0.00000000000000004134	     -0.00000000000000222852	    -36.48660255167930400000	    -12.88979287358901300000	     -1.23194065270832050000	    112.97821432452912000000	     92.51886380959867000000	     -0.00000000000000109889	      0.00000000000000284826
